<?xml version="1.0" encoding="UTF-8"?>
<svg id="Layer_1" data-name="Layer 1" xmlns="http://www.w3.org/2000/svg" viewBox="0 0 63 63">
  <defs>
    <style>
      .cls-1 {
        fill: #57e2d0;
        stroke-width: 0px;
      }
    </style>
  </defs>
  <path class="cls-1" d="m22.99,17.25h-12.53c-2.16,0-3.92-1.76-3.92-3.92s1.76-3.92,3.92-3.92h12.53v7.83Zm-12.53-6.83c-1.61,0-2.92,1.31-2.92,2.92s1.31,2.92,2.92,2.92h11.53v-5.83h-11.53Z"/>
  <path class="cls-1" d="m56.85,25.44c-.34,0-.67-.15-.89-.44l-2.05-2.61c-.41-.53-1.04-.83-1.71-.83h-4.7v-1h4.7c.98,0,1.89.44,2.5,1.21l2.05,2.61c.05.07.12.06.16.05.04-.02.1-.05.1-.13v-10.65c0-.08-.05-.12-.09-.13-.04-.01-.11-.02-.16.04l-2.05,2.52c-.61.74-1.5,1.17-2.46,1.17h-29.51v-1h29.51c.66,0,1.27-.29,1.68-.8l2.05-2.51c.31-.38.81-.52,1.27-.35.46.16.76.59.76,1.08v10.65c0,.49-.3.92-.77,1.08-.13.04-.25.06-.38.06Z"/>
  <path class="cls-1" d="m32.26,16.75h-1v-2.23c0-.5-.31-.95-.78-1.12l-7.85-3.01.36-.93,7.84,3.01c.85.31,1.43,1.14,1.43,2.05v2.23Z"/>
  <path class="cls-1" d="m29.76,21.51h-3.91c-1.13,0-2.05-.92-2.05-2.05v-2.72h1v2.72c0,.58.47,1.05,1.05,1.05h3.91v1Z"/>
  <path class="cls-1" d="m21.48,30.13l-.33-.94c.4-.14,9.65-3.48,8.12-12.36l.99-.17c1.68,9.72-8.67,13.44-8.77,13.47Z"/>
  <path class="cls-1" d="m55.47,30.13c-.1-.04-10.46-3.75-8.78-13.47l.99.17c-1.54,8.88,7.72,12.22,8.12,12.36l-.33.94Z"/>
  <path class="cls-1" d="m43.58,26.89h-10.28c-.41,0-.79-.19-1.04-.51-.25-.33-.33-.74-.22-1.14l1.28-4.75c.15-.57.67-.97,1.27-.97h7.41c.57,0,1.07.36,1.25.9l1.59,4.75c.13.4.07.84-.18,1.18-.25.34-.64.55-1.07.55Zm-9-6.38c-.14,0-.27.1-.3.23l-1.28,4.75c-.04.13.02.23.05.27s.11.12.25.12h10.28c.15,0,.23-.09.25-.13s.09-.15.04-.28l-1.59-4.75c-.04-.13-.16-.21-.3-.21h-7.41Z"/>
  <path class="cls-1" d="m40.63,46.25h-9.53c-1.01,0-1.84-.82-1.84-1.84v-3.83c0-1.01.82-1.84,1.84-1.84h9.53c1.01,0,1.84.82,1.84,1.84v3.83c0,1.01-.82,1.84-1.84,1.84Zm-9.53-6.5c-.46,0-.84.38-.84.84v3.83c0,.46.38.84.84.84h9.53c.46,0,.84-.38.84-.84v-3.83c0-.46-.38-.84-.84-.84h-9.53Z"/>
  <path class="cls-1" d="m54.69,50.76H22.25c-2.64,0-4.79-2.15-4.79-4.79v-12.62c0-2.64,2.15-4.79,4.79-4.79h32.44c2.64,0,4.79,2.15,4.79,4.79v12.62c0,2.64-2.15,4.79-4.79,4.79ZM22.25,30.06c-1.81,0-3.29,1.47-3.29,3.29v12.62c0,1.81,1.47,3.29,3.29,3.29h32.44c1.81,0,3.29-1.47,3.29-3.29v-12.62c0-1.81-1.47-3.29-3.29-3.29H22.25Z"/>
  <path class="cls-1" d="m23.37,36.65c-1.28,0-2.31-1.04-2.31-2.32s1.04-2.32,2.31-2.32,2.32,1.04,2.32,2.32-1.04,2.32-2.32,2.32Zm0-3.63c-.73,0-1.31.59-1.31,1.32s.59,1.32,1.31,1.32,1.32-.59,1.32-1.32-.59-1.32-1.32-1.32Z"/>
  <path class="cls-1" d="m30,36.65c-1.28,0-2.32-1.04-2.32-2.32s1.04-2.32,2.32-2.32,2.31,1.04,2.31,2.32-1.04,2.32-2.31,2.32Zm0-3.63c-.73,0-1.32.59-1.32,1.32s.59,1.32,1.32,1.32,1.31-.59,1.31-1.32-.59-1.32-1.31-1.32Z"/>
  <path class="cls-1" d="m36.62,36.65c-1.28,0-2.32-1.04-2.32-2.32s1.04-2.32,2.32-2.32,2.32,1.04,2.32,2.32-1.04,2.32-2.32,2.32Zm0-3.63c-.73,0-1.32.59-1.32,1.32s.59,1.32,1.32,1.32,1.32-.59,1.32-1.32-.59-1.32-1.32-1.32Z"/>
  <path class="cls-1" d="m27.2,39.99h-5.64c-.41,0-.75-.34-.75-.75s.34-.75.75-.75h5.64c.41,0,.75.34.75.75s-.34.75-.75.75Z"/>
  <path class="cls-1" d="m27.2,43.24h-5.64c-.41,0-.75-.34-.75-.75s.34-.75.75-.75h5.64c.41,0,.75.34.75.75s-.34.75-.75.75Z"/>
  <path class="cls-1" d="m18.71,46.05h-6.87v-12.78h6.87v12.78Zm-5.87-1h4.87v-10.78h-4.87v10.78Z"/>
  <path class="cls-1" d="m8.3,49.06h-2.48c-1.13,0-2.05-.92-2.05-2.05v-14.7c0-1.13.92-2.05,2.05-2.05h2.48v18.79Zm-2.48-17.79c-.58,0-1.05.47-1.05,1.05v14.7c0,.58.47,1.05,1.05,1.05h1.48v-16.79h-1.48Z"/>
  <path class="cls-1" d="m12.34,34.27c-.1,0-.21-.03-.3-.1l-4.04-3.01c-.22-.17-.27-.48-.1-.7.17-.22.48-.27.7-.1l4.04,3.01c.22.17.27.48.1.7-.1.13-.25.2-.4.2Z"/>
  <path class="cls-1" d="m8.12,49.06c-.16,0-.31-.07-.41-.21-.16-.22-.11-.54.12-.7l4.22-3.01c.23-.16.54-.11.7.12.16.22.11.54-.12.7l-4.22,3.01c-.09.06-.19.09-.29.09Z"/>
  <path class="cls-1" d="m45.23,50.51c-.28,0-.5-.22-.5-.5v-14.2c0-.28.22-.5.5-.5s.5.22.5.5v14.2c0,.28-.22.5-.5.5Z"/>
  <path class="cls-1" d="m53.29,53.58h-17.75c-.28,0-.5-.22-.5-.5s.22-.5.5-.5h17.75c.7,0,1.27-.57,1.27-1.27v-.82H22.36v.82c0,.7.57,1.27,1.27,1.27h7.03c.28,0,.5.22.5.5s-.22.5-.5.5h-7.03c-1.25,0-2.27-1.02-2.27-2.27v-1.82h34.2v1.82c0,1.25-1.02,2.27-2.27,2.27Z"/>
</svg>