<?xml version="1.0" encoding="UTF-8"?>
<svg id="Layer_1" data-name="Layer 1" xmlns="http://www.w3.org/2000/svg" viewBox="0 0 201.33 45.35">
  <defs>
    <style>
      .cls-1, .cls-2 {
        stroke-width: 0px;
      }

      .cls-2 {
        fill: #f85623;
      }
    </style>
  </defs>
  <path class="cls-2" d="m98.03,21.67c0-1.52-.39-2.96-1.07-4.21-.01-.03-.03-.06-.05-.08-1.48-2.66-4.29-4.47-7.53-4.54-.01,0-.03,0-.04,0-.05,0-.1,0-.15,0-3.18,0-5.97,1.69-7.53,4.21-.02.03-.04.05-.05.09-.8,1.33-1.26,2.88-1.26,4.54,0,1.52.39,2.96,1.07,4.21.01.03.03.06.04.08,1.48,2.65,4.28,4.46,7.5,4.54.01,0,.02,0,.04,0,0,0,.02,0,.02,0,.05,0,.11,0,.16,0,3.18,0,5.97-1.69,7.53-4.21.02-.03.04-.05.05-.09.8-1.33,1.26-2.88,1.26-4.54Zm-1.63,3.58l-2.18-3.78-2.01-3.48h4.14c.57,1.1.89,2.35.89,3.67s-.31,2.5-.84,3.58Zm-5.09.09h-4.24l-2.12-3.67,2.12-3.67h4.24l2.12,3.67-2.12,3.67Zm4.59-8.13h-8.38l2.07-3.59c2.63.13,4.93,1.53,6.3,3.59Zm-7.21-3.58l-2.18,3.78-2.01,3.48-2.07-3.59c1.35-2.08,3.64-3.51,6.26-3.67Zm-6.71,4.46l2.18,3.78,2.01,3.48h-4.14c-.57-1.1-.89-2.35-.89-3.67s.3-2.5.84-3.58Zm.5,8.04h8.38l-2.07,3.59c-2.63-.13-4.93-1.53-6.3-3.59Zm7.21,3.58l2.18-3.78,2.01-3.48,2.07,3.59c-1.35,2.08-3.64,3.51-6.26,3.67Z"/>
  <path class="cls-2" d="m192.08,17.22h0c-.04-2.72-1.15-5.25-3.14-7.12-1.98-1.87-4.57-2.83-7.29-2.71-.21,0-.38.19-.37.4.04,2.72,1.16,5.25,3.14,7.11,1.87,1.76,4.29,2.72,6.84,2.72.01,0,.03,0,.04,0v12.73c0,3.1-2.52,5.62-5.62,5.62h-2.24c-.22,0-.39.18-.39.39s.18.39.39.39h2.24c3.53,0,6.4-2.87,6.4-6.4v-13.13s0,0,0,0Zm-.82-.38c-2.35,0-4.58-.88-6.3-2.51-1.73-1.63-2.74-3.81-2.88-6.17,2.36,0,4.6.87,6.33,2.51,1.73,1.63,2.75,3.81,2.88,6.17h-.03Z"/>
  <path class="cls-2" d="m15.14,31.23c-1.88-1.77-4.31-2.73-6.88-2.72v-12.73c0-3.1,2.52-5.62,5.62-5.62h2.24c.22,0,.39-.18.39-.39s-.18-.39-.39-.39h-2.24c-3.53,0-6.4,2.87-6.4,6.4v13.13h0c.04,2.73,1.16,5.25,3.14,7.12,1.87,1.76,4.28,2.72,6.84,2.72.15,0,.3,0,.45,0,.21,0,.38-.19.37-.4-.05-2.72-1.16-5.25-3.14-7.11Zm-3.99,4.23c-1.73-1.63-2.75-3.81-2.88-6.17,2.37,0,4.6.88,6.33,2.51,1.73,1.63,2.74,3.81,2.88,6.17-2.36,0-4.6-.87-6.33-2.51Z"/>
  <path class="cls-1" d="m20.06,28.25c-1.96,0-3.47-.47-4.55-1.41-1.08-.94-1.61-2.33-1.61-4.17s.54-3.22,1.61-4.16c1.08-.94,2.63-1.41,4.66-1.41h2.77c2.03,0,3.58.47,4.66,1.41,1.08.94,1.61,2.32,1.61,4.16s-.54,3.24-1.61,4.17c-1.08.94-2.6,1.41-4.58,1.41h-2.95Zm.28-9.14c-1.14,0-2.02.21-2.66.62-.64.41-1.03,1.06-1.2,1.95h10.14c-.16-.89-.56-1.54-1.2-1.95-.64-.41-1.52-.62-2.66-.62h-2.43Zm.05,7.15h2.38c1.15,0,2.04-.21,2.67-.62.63-.41,1.03-1.06,1.19-1.97h-10.14c.16.9.56,1.56,1.2,1.97.64.41,1.54.62,2.7.62Z"/>
  <path class="cls-1" d="m31.29,28.25v-2l8.84.02c.45,0,.8-.11,1.04-.32.24-.21.36-.55.36-1.02s-.12-.81-.36-1.02-.59-.32-1.04-.32h-5.5c-1.14,0-2.02-.27-2.65-.82-.63-.55-.95-1.35-.95-2.42s.32-1.87.95-2.42c.63-.55,1.51-.82,2.65-.82h8.64v2l-8.38-.02c-.44,0-.78.1-1.03.3-.25.2-.37.52-.37.96s.12.76.37.96c.25.2.59.3,1.03.3h5.5c1.14,0,2.02.28,2.65.84.63.56.95,1.39.95,2.48s-.32,1.91-.95,2.47c-.63.56-1.51.84-2.65.84h-9.1Z"/>
  <path class="cls-1" d="m46.43,28.18v-10.99h2.46v4.5h7.75v-4.5h2.46v10.99h-2.46v-4.49h-7.75v4.49h-2.46Z"/>
  <path class="cls-1" d="m66.59,28.25c-1.12,0-2-.15-2.64-.44-.65-.29-1.11-.73-1.38-1.33-.28-.59-.42-1.34-.42-2.24v-7.05h2.46v7.05c0,.78.18,1.31.55,1.59.36.28.98.42,1.85.42h2.97c.87,0,1.49-.14,1.85-.42.36-.28.55-.81.55-1.59v-7.05h2.46v7.05c0,.9-.14,1.65-.42,2.24-.28.6-.74,1.04-1.38,1.33-.65.29-1.53.44-2.64.44h-3.8Z"/>
  <path class="cls-1" d="m103.82,28.25v-2l8.84.02c.45,0,.8-.11,1.04-.32.24-.21.36-.55.36-1.02s-.12-.81-.36-1.02c-.24-.21-.59-.32-1.04-.32h-5.5c-1.14,0-2.02-.27-2.65-.82-.63-.55-.94-1.35-.94-2.42s.32-1.87.94-2.42c.63-.55,1.51-.82,2.65-.82h8.64v2l-8.38-.02c-.44,0-.78.1-1.03.3-.25.2-.37.52-.37.96s.12.76.37.96c.25.2.59.3,1.03.3h5.5c1.14,0,2.02.28,2.65.84.63.56.94,1.39.94,2.48s-.31,1.91-.94,2.47c-.63.56-1.51.84-2.65.84h-9.1Z"/>
  <path class="cls-1" d="m118.57,22.75v-5.56h13.52v5.56h-2.49v-3.56h-3.35v8.99h-2.46v-8.99h-2.74v3.56h-2.49Z"/>
  <path class="cls-1" d="m139.21,28.25c-1.12,0-2-.15-2.64-.44-.65-.29-1.11-.73-1.38-1.33-.28-.59-.42-1.34-.42-2.24v-7.05h2.46v7.05c0,.78.18,1.31.55,1.59.36.28.98.42,1.85.42h2.97c.87,0,1.49-.14,1.85-.42.36-.28.55-.81.55-1.59v-7.05h2.46v7.05c0,.9-.14,1.65-.42,2.24-.28.6-.74,1.04-1.38,1.33-.65.29-1.53.44-2.64.44h-3.8Z"/>
  <path class="cls-1" d="m150.5,28.18v-10.99h1.81l4.92-.02c1.99,0,3.53.47,4.63,1.4,1.1.93,1.64,2.3,1.64,4.1s-.55,3.17-1.64,4.1c-1.1.93-2.64,1.4-4.63,1.4h-6.73Zm6.56-9.01h-4.1v7.01h4.1c1.29,0,2.27-.28,2.94-.85.67-.56,1-1.45,1-2.66s-.33-2.11-1-2.67c-.67-.56-1.64-.84-2.94-.84Z"/>
  <path class="cls-1" d="m165.95,28.18v-10.99h2.46v10.99h-2.46Z"/>
  <path class="cls-1" d="m177.01,28.25c-1.96,0-3.47-.47-4.55-1.41-1.08-.94-1.61-2.33-1.61-4.17s.54-3.22,1.61-4.16,2.63-1.41,4.66-1.41h2.77c2.03,0,3.58.47,4.66,1.41s1.61,2.32,1.61,4.16-.54,3.24-1.61,4.17c-1.08.94-2.6,1.41-4.58,1.41h-2.95Zm.28-9.14c-1.14,0-2.02.21-2.66.62-.64.41-1.03,1.06-1.2,1.95h10.14c-.16-.89-.56-1.54-1.2-1.95-.64-.41-1.52-.62-2.66-.62h-2.43Zm.05,7.15h2.38c1.15,0,2.04-.21,2.67-.62.63-.41,1.03-1.06,1.19-1.97h-10.14c.16.9.56,1.56,1.2,1.97.64.41,1.54.62,2.71.62Z"/>
</svg>