<?xml version="1.0" encoding="utf-8"?>
<!-- Generator: Adobe Illustrator 28.0.0, SVG Export Plug-In . SVG Version: 6.00 Build 0)  -->
<svg version="1.1" id="Layer_1" xmlns="http://www.w3.org/2000/svg" xmlns:xlink="http://www.w3.org/1999/xlink" x="0px" y="0px"
	 viewBox="0 0 201.3 45.3" style="enable-background:new 0 0 201.3 45.3;" xml:space="preserve">
<style type="text/css">
	.st0{fill:#F85623;}
	.st1{fill:#FFFFFF;}
</style>
<path class="st0" d="M98,21.7c0-1.5-0.4-3-1.1-4.2c0,0,0-0.1-0.1-0.1c-1.5-2.7-4.3-4.5-7.5-4.5c0,0,0,0,0,0c-0.1,0-0.1,0-0.2,0
	c-3.2,0-6,1.7-7.5,4.2c0,0,0,0-0.1,0.1c-0.8,1.3-1.3,2.9-1.3,4.5c0,1.5,0.4,3,1.1,4.2c0,0,0,0.1,0,0.1c1.5,2.6,4.3,4.5,7.5,4.5
	c0,0,0,0,0,0h0c0.1,0,0.1,0,0.2,0c3.2,0,6-1.7,7.5-4.2c0,0,0,0,0.1-0.1C97.6,24.9,98,23.3,98,21.7L98,21.7z M96.4,25.2l-2.2-3.8
	l-2-3.5h4.1c0.6,1.1,0.9,2.4,0.9,3.7S96.9,24.2,96.4,25.2L96.4,25.2z M91.3,25.3h-4.2l-2.1-3.7l2.1-3.7h4.2l2.1,3.7L91.3,25.3z
	 M95.9,17.2h-8.4l2.1-3.6C92.2,13.7,94.5,15.1,95.9,17.2L95.9,17.2z M88.7,13.6l-2.2,3.8l-2,3.5l-2.1-3.6
	C83.8,15.2,86.1,13.8,88.7,13.6z M82,18.1l2.2,3.8l2,3.5H82c-0.6-1.1-0.9-2.4-0.9-3.7S81.4,19.2,82,18.1L82,18.1z M82.5,26.1h8.4
	l-2.1,3.6C86.2,29.6,83.9,28.2,82.5,26.1L82.5,26.1z M89.7,29.7l2.2-3.8l2-3.5l2.1,3.6C94.6,28.1,92.3,29.6,89.7,29.7z"/>
<path class="st0" d="M192.1,17.2L192.1,17.2c0-2.7-1.1-5.2-3.1-7.1c-2-1.9-4.6-2.8-7.3-2.7c-0.2,0-0.4,0.2-0.4,0.4
	c0,2.7,1.2,5.2,3.1,7.1c1.9,1.8,4.3,2.7,6.8,2.7c0,0,0,0,0,0v12.7c0,3.1-2.5,5.6-5.6,5.6h-2.2c-0.2,0-0.4,0.2-0.4,0.4
	s0.2,0.4,0.4,0.4h2.2c3.5,0,6.4-2.9,6.4-6.4V17.2C192.1,17.2,192.1,17.2,192.1,17.2z M191.3,16.8c-2.4,0-4.6-0.9-6.3-2.5
	c-1.7-1.6-2.7-3.8-2.9-6.2c2.4,0,4.6,0.9,6.3,2.5C190.1,12.3,191.2,14.5,191.3,16.8L191.3,16.8z"/>
<path class="st0" d="M15.1,31.2c-1.9-1.8-4.3-2.7-6.9-2.7V15.8c0-3.1,2.5-5.6,5.6-5.6h2.2c0.2,0,0.4-0.2,0.4-0.4s-0.2-0.4-0.4-0.4
	h-2.2c-3.5,0-6.4,2.9-6.4,6.4v13.1l0,0c0,2.7,1.2,5.2,3.1,7.1c1.9,1.8,4.3,2.7,6.8,2.7c0.1,0,0.3,0,0.5,0c0.2,0,0.4-0.2,0.4-0.4
	C18.2,35.6,17.1,33.1,15.1,31.2L15.1,31.2z M11.2,35.5c-1.7-1.6-2.8-3.8-2.9-6.2c2.4,0,4.6,0.9,6.3,2.5s2.7,3.8,2.9,6.2
	C15.1,38,12.9,37.1,11.2,35.5z"/>
<path class="st1" d="M20.1,28.2c-2,0-3.5-0.5-4.6-1.4s-1.6-2.3-1.6-4.2s0.5-3.2,1.6-4.2c1.1-0.9,2.6-1.4,4.7-1.4h2.8
	c2,0,3.6,0.5,4.7,1.4s1.6,2.3,1.6,4.2s-0.5,3.2-1.6,4.2c-1.1,0.9-2.6,1.4-4.6,1.4H20.1L20.1,28.2z M20.3,19.1c-1.1,0-2,0.2-2.7,0.6
	c-0.6,0.4-1,1.1-1.2,2h10.1c-0.2-0.9-0.6-1.5-1.2-2c-0.6-0.4-1.5-0.6-2.7-0.6H20.3L20.3,19.1z M20.4,26.3h2.4c1.1,0,2-0.2,2.7-0.6
	c0.6-0.4,1-1.1,1.2-2H16.5c0.2,0.9,0.6,1.6,1.2,2C18.3,26,19.2,26.3,20.4,26.3z"/>
<path class="st1" d="M31.3,28.2v-2l8.8,0c0.5,0,0.8-0.1,1-0.3s0.4-0.5,0.4-1s-0.1-0.8-0.4-1s-0.6-0.3-1-0.3h-5.5
	c-1.1,0-2-0.3-2.6-0.8s-1-1.4-1-2.4s0.3-1.9,1-2.4c0.6-0.5,1.5-0.8,2.6-0.8h8.6v2l-8.4,0c-0.4,0-0.8,0.1-1,0.3
	c-0.2,0.2-0.4,0.5-0.4,1s0.1,0.8,0.4,1c0.2,0.2,0.6,0.3,1,0.3h5.5c1.1,0,2,0.3,2.7,0.8s1,1.4,1,2.5s-0.3,1.9-1,2.5s-1.5,0.8-2.7,0.8
	L31.3,28.2L31.3,28.2z"/>
<path class="st1" d="M46.4,28.2v-11h2.5v4.5h7.8v-4.5h2.5v11h-2.5v-4.5h-7.8v4.5H46.4z"/>
<path class="st1" d="M66.6,28.2c-1.1,0-2-0.1-2.6-0.4c-0.7-0.3-1.1-0.7-1.4-1.3c-0.3-0.6-0.4-1.3-0.4-2.2v-7.1h2.5v7
	c0,0.8,0.2,1.3,0.6,1.6c0.4,0.3,1,0.4,1.8,0.4h3c0.9,0,1.5-0.1,1.8-0.4s0.6-0.8,0.6-1.6v-7h2.5v7c0,0.9-0.1,1.6-0.4,2.2
	c-0.3,0.6-0.7,1-1.4,1.3c-0.7,0.3-1.5,0.4-2.6,0.4L66.6,28.2L66.6,28.2z"/>
<path class="st1" d="M103.8,28.2v-2l8.8,0c0.4,0,0.8-0.1,1-0.3s0.4-0.5,0.4-1s-0.1-0.8-0.4-1c-0.2-0.2-0.6-0.3-1-0.3h-5.5
	c-1.1,0-2-0.3-2.7-0.8c-0.6-0.5-0.9-1.4-0.9-2.4s0.3-1.9,0.9-2.4c0.6-0.5,1.5-0.8,2.7-0.8h8.6v2l-8.4,0c-0.4,0-0.8,0.1-1,0.3
	c-0.2,0.2-0.4,0.5-0.4,1s0.1,0.8,0.4,1c0.2,0.2,0.6,0.3,1,0.3h5.5c1.1,0,2,0.3,2.7,0.8c0.6,0.6,0.9,1.4,0.9,2.5s-0.3,1.9-0.9,2.5
	c-0.6,0.6-1.5,0.8-2.7,0.8L103.8,28.2L103.8,28.2z"/>
<path class="st1" d="M118.6,22.8v-5.6h13.5v5.6h-2.5v-3.6h-3.3v9h-2.5v-9H121v3.6H118.6L118.6,22.8z"/>
<path class="st1" d="M139.2,28.2c-1.1,0-2-0.1-2.6-0.4c-0.6-0.3-1.1-0.7-1.4-1.3c-0.3-0.6-0.4-1.3-0.4-2.2v-7.1h2.5v7
	c0,0.8,0.2,1.3,0.6,1.6c0.4,0.3,1,0.4,1.9,0.4h3c0.9,0,1.5-0.1,1.9-0.4s0.6-0.8,0.6-1.6v-7h2.5v7c0,0.9-0.1,1.6-0.4,2.2
	c-0.3,0.6-0.7,1-1.4,1.3c-0.6,0.3-1.5,0.4-2.6,0.4L139.2,28.2L139.2,28.2z"/>
<path class="st1" d="M150.5,28.2v-11h1.8l4.9,0c2,0,3.5,0.5,4.6,1.4s1.6,2.3,1.6,4.1s-0.6,3.2-1.6,4.1c-1.1,0.9-2.6,1.4-4.6,1.4
	L150.5,28.2L150.5,28.2z M157.1,19.2H153v7h4.1c1.3,0,2.3-0.3,2.9-0.9c0.7-0.6,1-1.5,1-2.7s-0.3-2.1-1-2.7S158.4,19.2,157.1,19.2
	L157.1,19.2z"/>
<path class="st1" d="M165.9,28.2v-11h2.5v11H165.9z"/>
<path class="st1" d="M177,28.2c-2,0-3.5-0.5-4.6-1.4s-1.6-2.3-1.6-4.2s0.5-3.2,1.6-4.2s2.6-1.4,4.7-1.4h2.8c2,0,3.6,0.5,4.7,1.4
	s1.6,2.3,1.6,4.2s-0.5,3.2-1.6,4.2c-1.1,0.9-2.6,1.4-4.6,1.4H177L177,28.2z M177.3,19.1c-1.1,0-2,0.2-2.7,0.6c-0.6,0.4-1,1.1-1.2,2
	h10.1c-0.2-0.9-0.6-1.5-1.2-2c-0.6-0.4-1.5-0.6-2.7-0.6H177.3L177.3,19.1z M177.3,26.3h2.4c1.1,0,2-0.2,2.7-0.6c0.6-0.4,1-1.1,1.2-2
	h-10.1c0.2,0.9,0.6,1.6,1.2,2S176.2,26.3,177.3,26.3L177.3,26.3z"/>
</svg>
