<svg width="240" height="58" viewBox="0 0 180 58" fill="none" xmlns="http://www.w3.org/2000/svg">
<text
    x="10"
    y="35"
    fill="white"
    font-family="Arial, sans-serif"
    font-size="22"
    font-weight="bold"
  >
    OSHU
  </text>
  <text
    x="120"
    y="35"
    fill="white"
    font-family="Arial, sans-serif"
    font-size="22"
    font-weight="bold"
  >
    STUDIO
  </text>
<path d="M199.998 18.3877C199.998 18.3859 199.998 18.3841 199.998 18.3822C199.922 13.2982 197.839 8.57439 194.132 5.08268C190.428 1.59281 185.591 -0.206063 180.507 0.0187957C180.112 0.0370768 179.801 0.366138 179.809 0.761012C179.891 5.84866 181.975 10.5707 185.677 14.0587C189.176 17.3548 193.688 19.1427 198.461 19.1427C198.487 19.1427 198.512 19.1409 198.538 19.1409V42.9412C198.538 48.7327 193.827 53.4437 188.035 53.4437H183.849C183.445 53.4437 183.118 53.771 183.118 54.175C183.118 54.579 183.445 54.9062 183.849 54.9062H188.035C194.633 54.9062 200 49.5389 200 42.9412V18.3932C199.998 18.3914 199.998 18.3896 199.998 18.3877ZM198.463 17.6802C194.063 17.6802 189.905 16.0331 186.681 12.9948C183.445 9.94731 181.551 5.87609 181.297 1.46301C185.714 1.45021 189.893 3.09735 193.13 6.14665C196.37 9.19778 198.264 13.2708 198.51 17.6802C198.496 17.6802 198.479 17.6802 198.463 17.6802Z" fill="#F85623" transform="translate(10, 0)"/>
<path d="M14.3233 43.8865C10.806 40.574 6.26313 38.7861 1.46249 38.8044V15.0041C1.46249 9.21262 6.17355 4.50156 11.965 4.50156H16.1514C16.5554 4.50156 16.8827 4.17432 16.8827 3.77031C16.8827 3.3663 16.5554 3.03906 16.1514 3.03906H11.965C5.36735 3.03906 0 8.40642 0 15.0041V39.5521C0 39.5539 0 39.5557 0 39.5576C0 39.5594 0 39.5612 0 39.563C0.076781 44.647 2.15901 49.3709 5.86643 52.8626C9.36362 56.1587 13.8736 57.9448 18.645 57.9448C18.9265 57.9448 19.2099 57.9393 19.4932 57.9265C19.8881 57.9082 20.1989 57.5791 20.1916 57.1843C20.1075 52.0966 18.0234 47.3746 14.3233 43.8865ZM6.86824 51.7986C3.62881 48.7475 1.73488 44.6745 1.48809 40.265C5.91213 40.2504 10.0839 41.9012 13.3197 44.9505C16.5536 47.998 18.4494 52.0692 18.7017 56.4823C14.2886 56.4932 10.1058 54.8479 6.86824 51.7986Z" fill="#F85623"/>
</svg>